<?xml version="1.0" standalone="no"?>
<!DOCTYPE svg PUBLIC "-//W3C//DTD SVG 20010904//EN"
 "http://www.w3.org/TR/2001/REC-SVG-20010904/DTD/svg10.dtd">
<svg version="1.0" xmlns="http://www.w3.org/2000/svg"
 width="700.000000pt" height="700.000000pt" viewBox="0 0 700.000000 700.000000"
 preserveAspectRatio="xMidYMid meet">
<metadata>
Created by potrace 1.11, written by Peter Selinger 2001-2013
</metadata>
<g transform="translate(0.000000,700.000000) scale(0.100000,-0.100000)"
fill="#000000" stroke="none">
<path d="M375 6708 c-36 -5 -88 -22 -130 -42 -113 -56 -187 -142 -226 -264
-17 -55 -18 -178 -18 -2907 -1 -3159 -6 -2909 65 -3026 57 -94 144 -159 264
-195 37 -11 285 -14 1385 -14 1319 0 1341 0 1373 20 34 21 72 74 72 102 0 16
15 17 150 17 148 -1 150 -1 150 -23 0 -48 57 -102 117 -112 33 -5 50 -1 81 16
37 21 72 72 72 105 0 13 23 15 138 14 l137 -1 25 -52 c46 -94 -77 -86 1340
-86 1008 0 1255 3 1295 14 169 45 288 169 324 336 9 42 11 749 9 2910 l-3
2855 -24 58 c-47 118 -155 220 -274 258 l-69 22 -3097 1 c-1703 1 -3124 -2
-3156 -6z"/>
</g>
</svg>
